<svg xmlns="http://www.w3.org/2000/svg" viewBox="0 0 1550 958.1"><path d="M123 771.1h4l12-12 14 12h3c4-6 9-10 14-15v-4c-6-3-11-9-16-14-1-1-2-1-3 1l-11 12-15-12c-1-1-2-2-3-1l-14 16v3c4 5 10 11 15 14zm96-6c-3 0-10 15-10 19 3 5 11 16 11 26v4c-2 6-53 20-101 20-21 0-37-2-46-7-15-6-19-16-19-21s2-11 4-15l2-7-1-1c-2 0-4 2-6 6-4 5-9 18-9 30 0 17 7 25 22 31 11 5 29 8 50 8 47 0 100-17 107-26 3-5 8-17 8-32 0-19-9-35-12-35zm90 15h2l14-17c1-1 2-1 1-2-7-4-15-11-19-15 0-1-1-1-3 1l-13 16v3c3 4 13 11 18 14z" fill="#fff"/><path d="M356 717.1v-2l-1-3c-3-3-6-8-9-18l-1-2c-2 0-5 4-8 9l-5 13v3l4 21 10 90-7 4-9 2c-7-2-13-8-13-14 0-5-1-7-2-7s-3 1-5 5c-8 13-21 16-30 16-7 0-12-3-14-9l-4-14c-6-27-2-76-6-112-1-5-2-6-3-6s-2 0-3 3l-7 12-2 4 1 2c3 18 4 49 5 70 0 14 1 26 3 37 1 13 5 24 11 30 1 4 4 6 9 6h11c4 0 7-1 9-3 10-3 16-10 18-14 0 1 1 4 4 7 0 7 3 10 9 10h3c2 .1 4 .1 6 0l5 1h2c6 0 8-5 8-9l2-2c6-10 10-24 10-40 0-17-6-45-7-79l6-11zm34-25-5 5c-4 8-8 18-8 25 0 14 11 98 11 129l1 6c2 0 4-4 6-11 3-7 4-20 4-35 0-37-6-89-7-111 0-6-1-8-2-8zm335 109-8 3c-10 5-25 12-37 16h-1c-20 1-33-18-34-22 1-7 27-17 38-17l16 1 2-1s0-3-3-5c-8-7-21-11-28-11-11 1-22 8-30 22-4 8-6 20-6 25 0 8 3 14 8 19-8 3-18 3-20 3h-3c-12 0-21-10-23-31-3-24-6-76-8-106l-1-2c-2 0-5 5-10 16v5l2 39c2 21 2 38 2 50 1 12-4 21-12 28s-17 11-24 13l-2 3c-2 3-5 9-5 12 0 2 1 4 4 4 19 0 38 9 44 15-5 7-49 28-77 28-23 0-48-11-48-39 0-10 4-22 10-34 2-4 4-9 2-9s-5 3-7 6c-8 12-15 34-15 51 0 40 31 49 53 49 34 0 94-29 94-58 0-4-1-10-9-15-4-2-8-5-18-7 9-6 15-17 16-30 1 12 5 20 10 26s12 9 22 9h6c15-2 42-11 56-18 14-6 26-11 32-15l5-4c3-6 8-15 8-18l-1-1zm80 28c8 0 12 1 15 2h2l2-1c4-4 7-14 8-21v-2c-9-12-23-33-41-33-14 0-23 24-23 39v3c-4 4-12 11-12 30l2 19c5 25 10 53 10 76v11l1 6c3 0 7-10 8-27l1-12c0-40-10-72-10-80 1-6 21-10 37-10zm-18-29c5 0 9 2 13 6-6 0-17 1-23 5 1-5 4-11 10-11zm240-6-2 2c-3 4-10 15-10 18v1l4 10c0 4-4 5-6 5-8 0-19-5-19-18l1-7c0-2-1-3-2-3-2 0-4 3-6 9-4 11-15 20-26 20s-15-7-16-15c0-5-1-7-2-7l-4 2c-5 9-10 15-17 19-6 3-13 4-22 4h-8c-1-10-2-21-7-28s-11-12-18-12c-6 0-13 10-19 22-3 8-6 17-6 23s3 11 10 15c6 4 16 4 22 4h7l1 7c0 12-15 30-40 42-9 5-14 6-21 6l-18-1-4 1c0 1 1 3 4 4 14 6 30 11 40 11l7-1c28-11 40-34 42-69l10-1h1c9-1 15-5 21-10 5-4 8-9 13-15 2 17 10 23 20 23 8 0 19-5 27-19 3 10 11 16 21 16 18 0 27-27 27-39 0-7-1-12-3-16l-2-3zm-155 41-11-3c-6-2-8-4-8-7 0-2 3-7 7-7l6 2c5 3 9 11 9 14l-3 1zm522-72 3-1 14-16v-2l-18-15c-1-1-1-1-3 1l-13 16v2c3 4 13 12 17 15zm47 61 5-1c5-4 12-15 12-19l-1-1h-5l-34-3c-19-4-42-14-61-18h-4c-5 0-9 1-14 5-7 5-13 14-13 19l2 2 9-3 6-1c11 0 27 6 47 11-17 8-31 12-40 15-10 3-21 4-35 4h-5l-13 2c5-9 9-22 9-29s-5-13-10-16c-6-4-13-6-19-6-15 0-47 25-70 52-12.6-2.3-23.5-10-30-21l-2-3-2 1c-1 1-7 14-7 22l1 3c7 11 9.9 24.1 8 37-7 18-38 28-65 28-17 0-40-11-40-30 0-10 4-18 9-27l2-7-2-1c-1 0-4 2-6 5-5 8-13 24-13 39 0 28 19 45 44 45s43-6 56-15c12-9 17-16 21-27 3-8 4-20 4-30 12 5 25 8 38 8s26-1 38-3c25-3 29-4 51-4h5c8-1 16-2 22-5 8-2 20-8 37-17l23-9c6-2 14-3 22-3l20 1zm-149 3c-23.8 11.8-50.6 16.3-77 13 18-20 41-31 52-31 5 0 11 1 18 6 4 3 8 8 8 11l-1 1zm192-29-2 2-6 17v3l8 12c10 14 10 22 10 24l-1 7c-6 15-28 33-39 38-9 4-15 6-21 6l-19-2c-2 0-3 1-3 2s0 2 4 3c12 7 32 12 40 12l7-1c26-11 42-37 42-72l-2-19c-4-14-14-32-18-32zm65-140c-1 0-2 0-3 2l-15 6h-2c-5 0-18-5-18-8s5-7 13-7l6 2 3 2 2-4 3-9c0-5-3-8-8-8-4 0-7 2-11 4-9 7-18 21-18 30v2c0 5 3 6 9 9l2 1-1 1-9 9-2 7 1 1 1-1c14-10 32-21 40-25 2-1 4-2 6-9l2-4-1-1zm-21 34-4 5c-5 8-9 18-9 25 0 14 11 98 11 129l1 6c2 0 4-4 6-11 3-7 4-20 4-35 0-37-6-89-7-111 0-6 0-8-2-8zM19 816.1l10-85c-1-2-4-2-5-2-4-1-16 1-21 2-2 1-3 5-3 7l11 77c1 1 7 2 8 1zm6 20c-5.5-4.5-13.5-4.5-19 0-3 3-4 7-4 10 0 4 1 7 4 10 2 3 6 4 9 4 4 0 8-1 11-4 2-2 4-7 4-9-1-4-2-8-5-11z" fill="#fff"/><path d="M1125.9 350.9c0 193.8-157.1 350.9-350.9 350.9-193.8 0-350.9-157.1-350.9-350.9C424.1 157.1 581.2 0 775 0c193.8 0 350.9 157.1 350.9 350.9" fill="#f60"/><path d="M584.6 246.2v-1.4c-.1-5.1-4.3-9.1-9.3-8.9-.3 0-.7 0-1 .1h-7.8c-2.6-.1-5.2.7-7.3 2.4-1.7 1.5-2.7 3.7-2.6 6 0 1.6.6 3.1 1.8 4.1 1.5 1.2 3.1 2.3 4.8 3 2.1.9 4.3 1.7 6.5 2.4 3.7 1 6.3 1.6 7.4 2.1 3.9 1.3 8.4 3 13.6 5.2 4.3 1.8 8.3 4.1 12 6.8 3.4 2.7 6.3 6.1 8.4 10 2.3 4.5 3.4 9.5 3.2 14.6.1 4.9-.9 9.8-2.7 14.4-1.7 4.1-4.4 7.6-7.9 10.3-3.6 2.8-7.7 4.9-12.1 6.2-5.1 1.5-10.4 2.2-15.7 2.1h-12c-5.3.1-10.5-.7-15.5-2.4-4.5-1.5-8.7-3.8-12.3-6.8-3.4-2.8-6-6.4-7.8-10.5-1.9-4.5-2.8-9.4-2.7-14.3V289h27v2.1c-.4 5.7 3.9 10.7 9.6 11.1H576c5.3.5 10.1-3.3 10.6-8.6 0-.4.1-.8 0-1.2.1-1.7-.5-3.4-1.6-4.6-1.2-1.4-2.6-2.6-4.2-3.5-2-1.1-4-2-6.1-2.7-.8-.2-5.2-1.9-7.1-2.5-2.4-.8-11.5-4.1-13.9-4.9-4.5-1.4-8.7-3.5-12.4-6.2-3.7-2.4-6.8-5.7-8.9-9.5-2.4-4.4-3.6-9.3-3.4-14.3 0-4.7.9-9.3 2.7-13.6 1.8-3.8 4.4-7.2 7.8-9.8 3.6-2.7 7.6-4.8 12-6 5.1-1.5 10.4-2.2 15.7-2.1h6.9c5.3-.1 10.5.7 15.5 2.2 4.3 1.4 8.4 3.6 12 6.5 3.2 2.8 5.7 6.2 7.4 10 1.8 4.1 2.7 8.6 2.7 13.1v1.7h-27.1z" fill="#fff"/><path d="M629.6 324.5V213.6h48c5.2-.1 10.3.7 15.2 2.5 8.8 3.2 15.7 10 19.1 18.7 1.8 4.7 2.7 9.8 2.6 14.9v3.5c.5 9.8-3.1 19.3-10 26.3-3.3 3.2-7.3 5.7-11.6 7.3-4.9 1.8-10 2.7-15.2 2.5h-20.2v35.2h-27.9zm27.8-86.8v27.6h19.1c2.8.1 5.5-.9 7.4-2.9 1.9-2.2 2.8-5 2.8-7.9v-5.7c.5-5.6-3.5-10.5-9.1-11-.4 0-.7-.1-1.1 0l-19.1-.1z" fill="#fff"/><path d="m795.3 324.5-6.7-19h-37.2l-6.7 19h-31.5l43.6-110.9H783l43.7 110.9h-31.4zm-35.9-42.3h20.8l-4.5-13-5.9-20.1-5.9 20.1-4.5 13z" fill="#fff"/><path d="M923.6 287.7v3.2c.2 5.1-.7 10.2-2.6 14.9-1.6 4.1-4.1 7.8-7.4 10.8-3.4 3-7.4 5.2-11.6 6.7-4.9 1.6-10 2.3-15.2 2.2h-15.2c-5.2.1-10.3-.7-15.2-2.5-4.3-1.6-8.3-4.1-11.6-7.3-6.9-7-10.5-16.5-10-26.3v-40.6c-.1-5.1.8-10.1 2.6-14.9 3.4-8.7 10.3-15.5 19.1-18.7 4.9-1.8 10-2.7 15.2-2.5h15.2c9.8-.6 19.4 2.6 27 8.9 6.9 6.7 10.5 16.1 9.9 25.7v1.7h-27v-2.7c.2-2.7-.8-5.4-2.7-7.3-2.1-1.6-4.8-2.4-7.4-2.2h-13.6c-2.8-.2-5.6.8-7.6 2.9-1.9 2.2-2.8 5-2.7 7.9v43.1c-.1 2.9.9 5.7 2.7 7.9 2 2 4.8 3.1 7.6 2.9h13.6c6.3 0 10.2-2.9 10.2-9.2V288h26.7z" fill="#fff"/><path d="M938.1 324.5V213.6h86.2v24.1h-58.9v18.1h35.7V279h-35.7v21.4h58.9v24.1h-86.2z" fill="#fff"/><path d="M611.2 489.2V378.3h31.4l25.5 48.5 10 21.4-1.8-23v-46.9h27.8v110.9h-31.3l-25.5-48.5-10-21.4 1.8 23v46.9h-27.9z" fill="#fff"/><path d="M857.2 378.3H954v24.1h-33.3v86.8h-30.3v-86.8h-33.3v-24.1z" fill="#fff"/><path d="M828.2 379.8h-15.4c.1-16.1-13-29.3-29.1-29.3-16.1-.1-29.3 13-29.3 29.1v.3H739l-14.4 109.4h118.1l-14.5-109.5zm-70.1 0c-.3-14.1 10.9-25.7 25-26 14.1-.3 25.7 10.9 26 25v1.1h-51z" fill="#fff"/><path d="M783.4 460.2c-5.9 0-11.6-2.2-15.9-6.3l17-9.8 17.4-10 4.3-2.5 12.2-7c-7-19.3-28.2-29.2-47.5-22.3-14.1 5.1-23.8 18.2-24.4 33.2v1.4c.1 20.5 16.8 37 37.3 36.9 14.7-.1 27.9-8.8 33.8-22.2l-13.7-3.1c-4.3 7.3-12 11.8-20.5 11.7m-23.2-21.6c0-.6-.1-1.1-.1-1.7 0-12.9 10.4-23.4 23.3-23.4 6 0 11.7 2.3 16 6.3l-17 9.8-17.4 10-4.3 2.5c-.2-1.1-.4-2.3-.5-3.5" fill="#f60"/></svg>